# xmcd CD database file
#
# Track frame offsets:
#	182
#	12890
#	24141
#	34556
#	45426
#	57805
#	69586
#	80789
#	93304
#	104179
#	117627
#	129919
#	143311
#	155520
#	168732
#	181879
#	196076
#	209733
#	222366
#	235624
#	246791
#	258837
#	273322
#	286272
#
# Disc length: 3986 seconds
#
# Revision: 2
# Processed by: cddbd v1.4PL0 Copyright (c) Steve Scherf et al.
# Submitted via: CDex 1.40Release
#
DISCID=4d0f9018
DTITLE=Professor Longhair - The Chronological Professor Longhair - 1949
DYEAR=1949
DGENRE=R&B
TTITLE0=She Ain't Got No Hair
TTITLE1=Bye Bye Baby
TTITLE2=Professor Longhair's Boogie
TTITLE3=Mardi Gras In New Orleans
TTITLE4=Byrd's Blues
TTITLE5=Her Mind Is Gone
TTITLE6=Bald Head
TTITLE7=Hey Now Baby
TTITLE8=Oh Well
TTITLE9=Hadacol Bounce
TTITLE10=Longhair Stomp
TTITLE11=Been Foolin' Around
TTITLE12=Between The Night And Day
TTITLE13=Hey Now Baby
TTITLE14=Mardi Gras In New Orleans
TTITLE15=She Walks Right In
TTITLE16=Hey Little Girl
TTITLE17=Willie Mae
TTITLE18=Walk Your Blues Away
TTITLE19=Professor Longhair Blues
TTITLE20=Boogie Woogie
TTITLE21=Longhair's Blues Rhumba
TTITLE22=Mardi Gras In New Orleans
TTITLE23=She Walks Right In
EXTD=YEAR: 1949 ID3G: 14
EXTT0=
EXTT1=
EXTT2=
EXTT3=
EXTT4=
EXTT5=
EXTT6=
EXTT7=
EXTT8=
EXTT9=
EXTT10=
EXTT11=
EXTT12=
EXTT13=
EXTT14=
EXTT15=
EXTT16=
EXTT17=
EXTT18=
EXTT19=
EXTT20=
EXTT21=
EXTT22=
EXTT23=
PLAYORDER=
